<?xml version="1.0" encoding="UTF-8"?>
<svg xmlns="http://www.w3.org/2000/svg" viewBox="0 0 460 300">
  <defs>
    <style>.cls-1{fill:#f6eb00;}.cls-2{fill:#84af34;}.cls-3{fill:#2570af;}.cls-4{fill:#a0cfef;}.cls-5{fill:#23560a;}</style>
  </defs>
  <title>submit0-cv-460x300</title>
  <g id="Layer_2">
    <g id="Layer_1-2">
      <path class="cls-1" d="M286,43V64h34v92H420.5735L460,182.2273V43Z"></path>
      <path class="cls-1" d="M174,64V0H0V139.2273L39.4265,113H141V64Z"></path>
      <path class="cls-2" d="M86,56.7742a20.1038,20.1038,0,0,0,20,20.1613V68.871c-5.5073,0-10.4-4.0323-11.2-8.871H106V37H86Z"></path>
      <path class="cls-2" d="M57,56.7742A20.1038,20.1038,0,0,0,77,76.9355V68.871c-5.5073,0-10.4-4.0323-11.2-8.871H77V37H57Z"></path>
      <path class="cls-2" d="M354,103h11.2c-.8,4.8387-5.6927,8.871-11.2,8.871v8.0645a20.1038,20.1038,0,0,0,20-20.1613V80H354Z"></path>
      <path class="cls-2" d="M383,103h11.2c-.8,4.8387-5.6927,8.871-11.2,8.871v8.0645a20.1038,20.1038,0,0,0,20-20.1613V80H383Z"></path>
      <rect class="cls-2" x="141" y="64" width="33" height="49"></rect>
      <polygon class="cls-1" points="320 287 141 287 141 186.447 113 174 113 300 348 300 347.955 174 320 186.322 320 287"></polygon>
      <path class="cls-2" d="M320,287V186.3215L229.9774,226,141,186.4468V287Z"></path>
      <polygon class="cls-3" points="141 161 113 174 141 186.447 141 161"></polygon>
      <polygon class="cls-3" points="347.955 174 320 161 320 186.322 347.955 174"></polygon>
      <path class="cls-4" d="M286,64H174v49H141v73.4468h0L230,226l90-39.6785h0V156H286Z"></path>
      <rect class="cls-2" x="286" y="64" width="34" height="92"></rect>
      <path class="cls-3" d="M190.0764,128.6553a8.4984,8.4984,0,1,0-9.2087-.0339A17.4132,17.4132,0,0,0,170.0313,143h30.8036A17.4126,17.4126,0,0,0,190.0764,128.6553Z"></path>
      <path class="cls-3" d="M213,118a5,5,0,0,0,5,5h68V113H218A5,5,0,0,0,213,118Z"></path>
      <path class="cls-5" d="M288,123a5,5,0,0,0,0-10h-2v10Z"></path>
      <path class="cls-3" d="M218,143h32a5,5,0,0,0,0-10H218a5,5,0,0,0,0,10Z"></path>
      <path class="cls-3" d="M168,178a5,5,0,0,0,5,5H288a5,5,0,0,0,0-10H173A5,5,0,0,0,168,178Z"></path>
      <path class="cls-5" d="M173,243h52.8882a5,5,0,0,0,0-10H173a5,5,0,0,0,0,10Z"></path>
      <path class="cls-5" d="M173,203h5.2374l-10.19-4.53A4.9833,4.9833,0,0,0,173,203Z"></path>
      <path class="cls-5" d="M288,203a4.9886,4.9886,0,0,0,4.9766-4.7676L282.16,203Z"></path>
      <polygon class="cls-3" points="223.229 223 236.784 223 259.472 213 200.733 213 223.229 223"></polygon>
      <path class="cls-5" d="M288,223a5,5,0,0,0,0-10H259.4718l-22.688,10Z"></path>
      <path class="cls-5" d="M173,213a5,5,0,0,0,0,10h50.2286L200.733,213Z"></path>
      <path class="cls-3" d="M178.2374,203H282.16l10.8167-4.7676c.0037-.0787.0234-.1528.0234-.2324a5,5,0,0,0-5-5H173a5,5,0,0,0-5,5c0,.1611.0325.313.0474.47Z"></path>
    </g>
  </g>
</svg>
